<mxfile host="app.diagrams.net" modified="2022-12-15T15:32:14.881Z" agent="5.0 (Windows NT 10.0; Win64; x64) AppleWebKit/537.36 (KHTML, like Gecko) Chrome/108.0.0.0 Safari/537.36" etag="aiA0RmcN8eXPV9uHWagY" version="20.7.3" type="github">
  <diagram id="_4qRfNRA6codScSYRJrK" name="Page-1">
    <mxGraphModel dx="2074" dy="1074" grid="1" gridSize="10" guides="1" tooltips="1" connect="1" arrows="1" fold="1" page="1" pageScale="1" pageWidth="827" pageHeight="1169" math="0" shadow="0">
      <root>
        <mxCell id="0" />
        <mxCell id="1" parent="0" />
        <mxCell id="821MT2qO5yVyMycsiypd-1" value="DialogueUI " style="swimlane;fontStyle=1;childLayout=stackLayout;horizontal=1;startSize=30;fillColor=none;horizontalStack=0;resizeParent=1;resizeParentMax=0;resizeLast=0;collapsible=1;marginBottom=0;aspect=fixed;" parent="1" vertex="1">
          <mxGeometry x="134" width="260" height="238" as="geometry">
            <mxRectangle x="20" y="30" width="100" height="30" as="alternateBounds" />
          </mxGeometry>
        </mxCell>
        <mxCell id="821MT2qO5yVyMycsiypd-2" value="NPCBox:size box&#xa;" style="text;strokeColor=none;fillColor=none;align=left;verticalAlign=top;spacingLeft=4;spacingRight=4;overflow=hidden;rotatable=0;points=[[0,0.5],[1,0.5]];portConstraint=eastwest;" parent="821MT2qO5yVyMycsiypd-1" vertex="1">
          <mxGeometry y="30" width="260" height="26" as="geometry" />
        </mxCell>
        <mxCell id="821MT2qO5yVyMycsiypd-3" value="NPCText: Text" style="text;strokeColor=none;fillColor=none;align=left;verticalAlign=top;spacingLeft=4;spacingRight=4;overflow=hidden;rotatable=0;points=[[0,0.5],[1,0.5]];portConstraint=eastwest;" parent="821MT2qO5yVyMycsiypd-1" vertex="1">
          <mxGeometry y="56" width="260" height="26" as="geometry" />
        </mxCell>
        <mxCell id="821MT2qO5yVyMycsiypd-4" value="RepliesListView: List view" style="text;strokeColor=none;fillColor=none;align=left;verticalAlign=top;spacingLeft=4;spacingRight=4;overflow=hidden;rotatable=0;points=[[0,0.5],[1,0.5]];portConstraint=eastwest;" parent="821MT2qO5yVyMycsiypd-1" vertex="1">
          <mxGeometry y="82" width="260" height="26" as="geometry" />
        </mxCell>
        <mxCell id="xldacFI_uvSt_48eZSiu-2" value="DialogueState: Enum class Edialogue State" style="text;strokeColor=none;fillColor=none;align=left;verticalAlign=top;spacingLeft=4;spacingRight=4;overflow=hidden;rotatable=0;points=[[0,0.5],[1,0.5]];portConstraint=eastwest;" parent="821MT2qO5yVyMycsiypd-1" vertex="1">
          <mxGeometry y="108" width="260" height="26" as="geometry" />
        </mxCell>
        <mxCell id="xldacFI_uvSt_48eZSiu-7" value="Event Dispatchers" style="text;strokeColor=none;fillColor=none;align=center;verticalAlign=top;spacingLeft=4;spacingRight=4;overflow=hidden;rotatable=0;points=[[0,0.5],[1,0.5]];portConstraint=eastwest;fontStyle=1" parent="821MT2qO5yVyMycsiypd-1" vertex="1">
          <mxGeometry y="134" width="260" height="26" as="geometry" />
        </mxCell>
        <mxCell id="xldacFI_uvSt_48eZSiu-8" value="OnExit" style="text;strokeColor=none;fillColor=none;align=left;verticalAlign=top;spacingLeft=4;spacingRight=4;overflow=hidden;rotatable=0;points=[[0,0.5],[1,0.5]];portConstraint=eastwest;" parent="821MT2qO5yVyMycsiypd-1" vertex="1">
          <mxGeometry y="160" width="260" height="26" as="geometry" />
        </mxCell>
        <mxCell id="xldacFI_uvSt_48eZSiu-9" value="OnSpeakFinished" style="text;strokeColor=none;fillColor=none;align=left;verticalAlign=top;spacingLeft=4;spacingRight=4;overflow=hidden;rotatable=0;points=[[0,0.5],[1,0.5]];portConstraint=eastwest;" parent="821MT2qO5yVyMycsiypd-1" vertex="1">
          <mxGeometry y="186" width="260" height="26" as="geometry" />
        </mxCell>
        <mxCell id="xldacFI_uvSt_48eZSiu-10" value="OnReplyFinished&#xa;" style="text;strokeColor=none;fillColor=none;align=left;verticalAlign=top;spacingLeft=4;spacingRight=4;overflow=hidden;rotatable=0;points=[[0,0.5],[1,0.5]];portConstraint=eastwest;" parent="821MT2qO5yVyMycsiypd-1" vertex="1">
          <mxGeometry y="212" width="260" height="26" as="geometry" />
        </mxCell>
        <mxCell id="xldacFI_uvSt_48eZSiu-11" value="DialogueEntryWidget" style="swimlane;fontStyle=1;childLayout=stackLayout;horizontal=1;startSize=26;fillColor=none;horizontalStack=0;resizeParent=1;resizeParentMax=0;resizeLast=0;collapsible=1;marginBottom=0;" parent="1" vertex="1">
          <mxGeometry x="454" y="30" width="260" height="156" as="geometry" />
        </mxCell>
        <mxCell id="xldacFI_uvSt_48eZSiu-12" value="ReplyButton: Button" style="text;strokeColor=none;fillColor=none;align=left;verticalAlign=top;spacingLeft=4;spacingRight=4;overflow=hidden;rotatable=0;points=[[0,0.5],[1,0.5]];portConstraint=eastwest;" parent="xldacFI_uvSt_48eZSiu-11" vertex="1">
          <mxGeometry y="26" width="260" height="26" as="geometry" />
        </mxCell>
        <mxCell id="xldacFI_uvSt_48eZSiu-13" value="ReplyText: Text" style="text;strokeColor=none;fillColor=none;align=left;verticalAlign=top;spacingLeft=4;spacingRight=4;overflow=hidden;rotatable=0;points=[[0,0.5],[1,0.5]];portConstraint=eastwest;" parent="xldacFI_uvSt_48eZSiu-11" vertex="1">
          <mxGeometry y="52" width="260" height="26" as="geometry" />
        </mxCell>
        <mxCell id="xldacFI_uvSt_48eZSiu-14" value="DialogueReplyObject: Dialogue Reply Object" style="text;strokeColor=none;fillColor=none;align=left;verticalAlign=top;spacingLeft=4;spacingRight=4;overflow=hidden;rotatable=0;points=[[0,0.5],[1,0.5]];portConstraint=eastwest;" parent="xldacFI_uvSt_48eZSiu-11" vertex="1">
          <mxGeometry y="78" width="260" height="26" as="geometry" />
        </mxCell>
        <mxCell id="xldacFI_uvSt_48eZSiu-15" value="Hover Color: linear color" style="text;strokeColor=none;fillColor=none;align=left;verticalAlign=top;spacingLeft=4;spacingRight=4;overflow=hidden;rotatable=0;points=[[0,0.5],[1,0.5]];portConstraint=eastwest;" parent="xldacFI_uvSt_48eZSiu-11" vertex="1">
          <mxGeometry y="104" width="260" height="26" as="geometry" />
        </mxCell>
        <mxCell id="xldacFI_uvSt_48eZSiu-16" value="DefaultColor: Linear Color" style="text;strokeColor=none;fillColor=none;align=left;verticalAlign=top;spacingLeft=4;spacingRight=4;overflow=hidden;rotatable=0;points=[[0,0.5],[1,0.5]];portConstraint=eastwest;" parent="xldacFI_uvSt_48eZSiu-11" vertex="1">
          <mxGeometry y="130" width="260" height="26" as="geometry" />
        </mxCell>
        <mxCell id="xldacFI_uvSt_48eZSiu-17" value="&lt;p style=&quot;margin:0px;margin-top:6px;text-align:center;&quot;&gt;&lt;b&gt;Dialogue Component&lt;/b&gt;&lt;/p&gt;&lt;hr&gt;&lt;p style=&quot;margin:0px;margin-left:8px;&quot;&gt;DialogueUI: DialogueUI&lt;br&gt;AIController: AIController&lt;/p&gt;&lt;p style=&quot;margin:0px;margin-left:8px;&quot;&gt;DialogueTree: Behaviour Tree&lt;/p&gt;&lt;p style=&quot;margin:0px;margin-left:8px;&quot;&gt;&lt;br&gt;&lt;/p&gt;" style="align=left;overflow=fill;html=1;dropTarget=0;" parent="1" vertex="1">
          <mxGeometry x="314" y="270" width="180" height="90" as="geometry" />
        </mxCell>
        <mxCell id="xldacFI_uvSt_48eZSiu-18" value="" style="shape=component;jettyWidth=8;jettyHeight=4;" parent="xldacFI_uvSt_48eZSiu-17" vertex="1">
          <mxGeometry x="1" width="20" height="20" relative="1" as="geometry">
            <mxPoint x="-24" y="4" as="offset" />
          </mxGeometry>
        </mxCell>
        <mxCell id="xldacFI_uvSt_48eZSiu-20" style="edgeStyle=orthogonalEdgeStyle;rounded=0;orthogonalLoop=1;jettySize=auto;html=1;" parent="1" source="xldacFI_uvSt_48eZSiu-19" target="xldacFI_uvSt_48eZSiu-17" edge="1">
          <mxGeometry relative="1" as="geometry" />
        </mxCell>
        <mxCell id="xldacFI_uvSt_48eZSiu-19" value="«interface»&lt;br&gt;&lt;b&gt;On Interaction&lt;/b&gt;" style="html=1;" parent="1" vertex="1">
          <mxGeometry x="114" y="290" width="110" height="50" as="geometry" />
        </mxCell>
        <mxCell id="xldacFI_uvSt_48eZSiu-21" value="Speak" style="swimlane;fontStyle=1;childLayout=stackLayout;horizontal=1;startSize=26;fillColor=none;horizontalStack=0;resizeParent=1;resizeParentMax=0;resizeLast=0;collapsible=1;marginBottom=0;" parent="1" vertex="1">
          <mxGeometry x="114" y="570" width="230" height="78" as="geometry" />
        </mxCell>
        <mxCell id="xldacFI_uvSt_48eZSiu-23" value="DialogWidget: Blackboard Jet Selector" style="text;strokeColor=none;fillColor=none;align=left;verticalAlign=top;spacingLeft=4;spacingRight=4;overflow=hidden;rotatable=0;points=[[0,0.5],[1,0.5]];portConstraint=eastwest;" parent="xldacFI_uvSt_48eZSiu-21" vertex="1">
          <mxGeometry y="26" width="230" height="26" as="geometry" />
        </mxCell>
        <mxCell id="xldacFI_uvSt_48eZSiu-24" value="Text: Text" style="text;strokeColor=none;fillColor=none;align=left;verticalAlign=top;spacingLeft=4;spacingRight=4;overflow=hidden;rotatable=0;points=[[0,0.5],[1,0.5]];portConstraint=eastwest;" parent="xldacFI_uvSt_48eZSiu-21" vertex="1">
          <mxGeometry y="52" width="230" height="26" as="geometry" />
        </mxCell>
        <mxCell id="xldacFI_uvSt_48eZSiu-25" value="Reply" style="swimlane;fontStyle=1;childLayout=stackLayout;horizontal=1;startSize=26;fillColor=none;horizontalStack=0;resizeParent=1;resizeParentMax=0;resizeLast=0;collapsible=1;marginBottom=0;" parent="1" vertex="1">
          <mxGeometry x="384" y="570" width="240" height="102" as="geometry" />
        </mxCell>
        <mxCell id="xldacFI_uvSt_48eZSiu-26" value="DialogWidget: Blackboard Jet Selector" style="text;strokeColor=none;fillColor=none;align=left;verticalAlign=top;spacingLeft=4;spacingRight=4;overflow=hidden;rotatable=0;points=[[0,0.5],[1,0.5]];portConstraint=eastwest;" parent="xldacFI_uvSt_48eZSiu-25" vertex="1">
          <mxGeometry y="26" width="240" height="26" as="geometry" />
        </mxCell>
        <mxCell id="xldacFI_uvSt_48eZSiu-28" value="ReplyIndex(Out): Blackboard Key Selector" style="text;strokeColor=none;fillColor=none;align=left;verticalAlign=top;spacingLeft=4;spacingRight=4;overflow=hidden;rotatable=0;points=[[0,0.5],[1,0.5]];portConstraint=eastwest;" parent="xldacFI_uvSt_48eZSiu-25" vertex="1">
          <mxGeometry y="52" width="240" height="26" as="geometry" />
        </mxCell>
        <mxCell id="xldacFI_uvSt_48eZSiu-27" value="Text: Text" style="text;strokeColor=none;fillColor=none;align=left;verticalAlign=top;spacingLeft=4;spacingRight=4;overflow=hidden;rotatable=0;points=[[0,0.5],[1,0.5]];portConstraint=eastwest;" parent="xldacFI_uvSt_48eZSiu-25" vertex="1">
          <mxGeometry y="78" width="240" height="24" as="geometry" />
        </mxCell>
        <mxCell id="xldacFI_uvSt_48eZSiu-38" style="edgeStyle=orthogonalEdgeStyle;rounded=0;orthogonalLoop=1;jettySize=auto;html=1;" parent="1" source="xldacFI_uvSt_48eZSiu-29" target="xldacFI_uvSt_48eZSiu-37" edge="1">
          <mxGeometry relative="1" as="geometry" />
        </mxCell>
        <mxCell id="xldacFI_uvSt_48eZSiu-29" value="BlackBoard Dialogue" style="rounded=0;whiteSpace=wrap;html=1;" parent="1" vertex="1">
          <mxGeometry x="294" y="380" width="120" height="60" as="geometry" />
        </mxCell>
        <mxCell id="xldacFI_uvSt_48eZSiu-34" style="edgeStyle=orthogonalEdgeStyle;rounded=0;orthogonalLoop=1;jettySize=auto;html=1;entryX=0;entryY=0;entryDx=0;entryDy=0;" parent="1" source="xldacFI_uvSt_48eZSiu-9" target="xldacFI_uvSt_48eZSiu-21" edge="1">
          <mxGeometry relative="1" as="geometry" />
        </mxCell>
        <mxCell id="xldacFI_uvSt_48eZSiu-35" style="edgeStyle=orthogonalEdgeStyle;rounded=0;orthogonalLoop=1;jettySize=auto;html=1;" parent="1" source="xldacFI_uvSt_48eZSiu-10" target="xldacFI_uvSt_48eZSiu-25" edge="1">
          <mxGeometry relative="1" as="geometry">
            <Array as="points">
              <mxPoint x="504" y="230" />
            </Array>
          </mxGeometry>
        </mxCell>
        <mxCell id="xldacFI_uvSt_48eZSiu-39" style="edgeStyle=orthogonalEdgeStyle;rounded=0;orthogonalLoop=1;jettySize=auto;html=1;entryX=0.5;entryY=0;entryDx=0;entryDy=0;" parent="1" source="xldacFI_uvSt_48eZSiu-37" target="xldacFI_uvSt_48eZSiu-21" edge="1">
          <mxGeometry relative="1" as="geometry" />
        </mxCell>
        <mxCell id="xldacFI_uvSt_48eZSiu-40" style="edgeStyle=orthogonalEdgeStyle;rounded=0;orthogonalLoop=1;jettySize=auto;html=1;" parent="1" source="xldacFI_uvSt_48eZSiu-37" target="xldacFI_uvSt_48eZSiu-25" edge="1">
          <mxGeometry relative="1" as="geometry">
            <Array as="points">
              <mxPoint x="354" y="540" />
              <mxPoint x="504" y="540" />
            </Array>
          </mxGeometry>
        </mxCell>
        <mxCell id="xldacFI_uvSt_48eZSiu-37" value="Behaviour Tree" style="html=1;" parent="1" vertex="1">
          <mxGeometry x="299" y="460" width="110" height="50" as="geometry" />
        </mxCell>
        <mxCell id="xldacFI_uvSt_48eZSiu-41" style="edgeStyle=orthogonalEdgeStyle;rounded=0;orthogonalLoop=1;jettySize=auto;html=1;" parent="1" source="821MT2qO5yVyMycsiypd-4" target="xldacFI_uvSt_48eZSiu-12" edge="1">
          <mxGeometry relative="1" as="geometry" />
        </mxCell>
        <mxCell id="xldacFI_uvSt_48eZSiu-42" style="edgeStyle=orthogonalEdgeStyle;rounded=0;orthogonalLoop=1;jettySize=auto;html=1;" parent="1" source="821MT2qO5yVyMycsiypd-4" target="xldacFI_uvSt_48eZSiu-13" edge="1">
          <mxGeometry relative="1" as="geometry" />
        </mxCell>
        <mxCell id="xldacFI_uvSt_48eZSiu-43" style="edgeStyle=orthogonalEdgeStyle;rounded=0;orthogonalLoop=1;jettySize=auto;html=1;" parent="1" source="821MT2qO5yVyMycsiypd-3" target="xldacFI_uvSt_48eZSiu-13" edge="1">
          <mxGeometry relative="1" as="geometry" />
        </mxCell>
      </root>
    </mxGraphModel>
  </diagram>
</mxfile>
